<svg xmlns="http://www.w3.org/2000/svg" width="77.756" height="45.153" viewBox="0 0 77.756 45.153">
  <g id="from_-_to_section" data-name="from - to section" transform="translate(-150.911 -181.472)">
    <path id="line" d="M151.308,206s29.232-39.879,69.111,0" transform="translate(4.122 2.728)" fill="none" stroke="#771ee1" stroke-linecap="round" stroke-width="2"/>
    <g id="shadow" transform="translate(157.873 194.89)">
      <path id="shadow-2" data-name="shadow" d="M156.133,207.156s14.537-14.129,63.47-1.017" transform="translate(-156.133 -189.333)" fill="none" stroke="#000" stroke-width="1" opacity="0.53"/>
      <g id="shadow-3" data-name="shadow" transform="translate(1.152 8.481) rotate(-28)">
        <g id="flights" transform="translate(0 0)">
          <path id="Path_10" data-name="Path 10" d="M18.065,8.573A1.389,1.389,0,0,0,16.71,7.22H11.742L7.226,0H5.42L7.678,7.22H2.71l-1.355-1.8H0L.9,8.573,0,11.732H1.355l1.355-1.8H7.678L5.42,17.147H7.226l4.516-7.22H16.71A1.389,1.389,0,0,0,18.065,8.573Z" fill="#1b1b1b" opacity="0.34"/>
        </g>
      </g>
    </g>
    <g id="black-plane" transform="translate(159.025 192.658) rotate(-28)">
      <g id="flights-2" data-name="flights">
        <g id="Path_10-2" data-name="Path 10" fill="#771ee1" stroke-linecap="round" stroke-linejoin="round">
          <path d="M 7.780007839202881 18.14679908752441 L 7.226017951965332 18.14679908752441 L 5.419517993927002 18.14679908752441 L 4.058968067169189 18.14679908752441 L 4.465107917785645 16.84828948974609 L 6.317098617553711 10.92709922790527 L 3.209499359130859 10.92709922790527 L 2.154628038406372 12.33235931396484 L 1.854617953300476 12.73201942443848 L 1.354877948760986 12.73201942443848 L -2.076415967167122e-06 12.73201942443848 L -1.326052069664001 12.73201942443848 L -0.9614620804786682 11.45707988739014 L -0.1368348747491837 8.573399543762207 L -0.9614620804786682 5.689719676971436 L -1.326052069664001 4.414779663085938 L -2.076415967167122e-06 4.414779663085938 L 1.354877948760986 4.414779663085938 L 1.854617953300476 4.414779663085938 L 2.154628038406372 4.81443977355957 L 3.209501028060913 6.219709396362305 L 6.317099094390869 6.219709396362305 L 4.465107917785645 0.2985095381736755 L 4.058968067169189 -1.000000476837158 L 5.419517993927002 -1.000000476837158 L 7.226017951965332 -1.000000476837158 L 7.780007839202881 -1.000000476837158 L 8.073807716369629 -0.53033047914505 L 12.29627704620361 6.219709396362305 L 16.71017837524414 6.219709396362305 C 17.98665809631348 6.219709396362305 19.0650577545166 7.297569751739502 19.0650577545166 8.573399543762207 C 19.0650577545166 9.849239349365234 17.98665809631348 10.92709922790527 16.71017837524414 10.92709922790527 L 12.29627704620361 10.92709922790527 L 8.073807716369629 17.6771297454834 L 7.780007839202881 18.14679908752441 Z" stroke="none"/>
          <path d="M 7.226017951965332 17.14679908752441 L 11.74228763580322 9.927099227905273 L 16.71017837524414 9.927099227905273 C 17.43277740478516 9.927099227905273 18.0650577545166 9.295369148254395 18.0650577545166 8.573399543762207 C 18.0650577545166 7.851429462432861 17.43277740478516 7.219709396362305 16.71017837524414 7.219709396362305 L 11.74228763580322 7.219709396362305 L 7.226017951965332 -4.562377853289945e-07 L 5.419517993927002 -4.562377853289945e-07 L 7.677648067474365 7.219709396362305 L 2.709757804870605 7.219709396362305 L 1.354877948760986 5.414779663085938 L -2.076415967167122e-06 5.414779663085938 L 0.9032479524612427 8.573399543762207 L -2.076415967167122e-06 11.73201942443848 L 1.354877948760986 11.73201942443848 L 2.709757804870605 9.927099227905273 L 7.677648067474365 9.927099227905273 L 5.419517993927002 17.14679908752441 L 7.226017951965332 17.14679908752441 M 7.226017951965332 19.14679908752441 L 5.419517993927002 19.14679908752441 C 4.78319787979126 19.14679908752441 4.184847831726074 18.8439998626709 3.807987928390503 18.33127021789551 C 3.431138038635254 17.81853866577148 3.320757865905762 17.15708923339844 3.510707855224609 16.54977035522461 L 4.956555843353271 11.92709922790527 L 3.709223508834839 11.92709922790527 L 2.954367876052856 12.93268966674805 C 2.576627969741821 13.43590927124023 1.984097957611084 13.73201942443848 1.354877948760986 13.73201942443848 L -2.076415967167122e-06 13.73201942443848 C -0.6276620626449585 13.73201942443848 -1.218922019004822 13.43735980987549 -1.596842050552368 12.93622970581055 C -1.974752068519592 12.43508911132812 -2.095492124557495 11.78560924530029 -1.922922134399414 11.18212985992432 L -1.176920533180237 8.573399543762207 L -1.922922134399414 5.964669704437256 C -2.095492124557495 5.361189365386963 -1.974752068519592 4.711709499359131 -1.596842050552368 4.210569381713867 C -1.218922019004822 3.709439516067505 -0.6276620626449585 3.414779424667358 -2.076415967167122e-06 3.414779424667358 L 1.354877948760986 3.414779424667358 C 1.984097957611084 3.414779424667358 2.576627969741821 3.710889577865601 2.954377889633179 4.214109420776367 L 3.709236860275269 5.219709396362305 L 4.956560134887695 5.219709396362305 L 3.510707855224609 0.5970195531845093 C 3.320757865905762 -0.01029045600444078 3.431138038635254 -0.6717504858970642 3.807987928390503 -1.184470415115356 C 4.184847831726074 -1.697200417518616 4.78319787979126 -2.000000476837158 5.419517993927002 -2.000000476837158 L 7.226017951965332 -2.000000476837158 C 7.915318012237549 -2.000000476837158 8.556037902832031 -1.645050406455994 8.921597480773926 -1.060670495033264 L 12.8502721786499 5.219709396362305 L 16.71017837524414 5.219709396362305 C 18.52870750427246 5.219709396362305 20.0650577545166 6.755509376525879 20.0650577545166 8.573399543762207 C 20.0650577545166 10.39128971099854 18.52870750427246 11.92709922790527 16.71017837524414 11.92709922790527 L 12.8502721786499 11.92709922790527 L 8.921597480773926 18.20746994018555 C 8.556037902832031 18.79184913635254 7.915318012237549 19.14679908752441 7.226017951965332 19.14679908752441 Z" stroke="none" fill="#fff"/>
        </g>
      </g>
    </g>
    <ellipse id="left_circle" data-name="left circle" cx="4.687" cy="1.339" rx="4.687" ry="1.339" transform="translate(151 208.043)" fill="#771ee1"/>
    <ellipse id="right_circle" data-name="right circle" cx="4.687" cy="1.339" rx="4.687" ry="1.339" transform="translate(219.293 208.043)" fill="#771ee1"/>
  </g>
</svg>
