<svg xmlns="http://www.w3.org/2000/svg" width="29.342" height="28.994" viewBox="0 0 29.342 28.994">
  <g id="black-plane" transform="translate(2.637 11.186) rotate(-28)">
    <g id="flights">
      <g id="Path_10" data-name="Path 10" fill="#fee021" stroke-linecap="round" stroke-linejoin="bevel">
        <path d="M 7.780007839202881 18.14679908752441 L 7.226017951965332 18.14679908752441 L 5.419517993927002 18.14679908752441 L 4.058968067169189 18.14679908752441 L 4.465107917785645 16.84828948974609 L 6.317098617553711 10.92709922790527 L 3.209499359130859 10.92709922790527 L 2.154628038406372 12.33235931396484 L 1.854617953300476 12.73201942443848 L 1.354877948760986 12.73201942443848 L -2.076415967167122e-06 12.73201942443848 L -1.326052069664001 12.73201942443848 L -0.9614620804786682 11.45707988739014 L -0.1368348747491837 8.573399543762207 L -0.9614620804786682 5.689719676971436 L -1.326052069664001 4.414779663085938 L -2.076415967167122e-06 4.414779663085938 L 1.354877948760986 4.414779663085938 L 1.854617953300476 4.414779663085938 L 2.154628038406372 4.81443977355957 L 3.209501028060913 6.219709396362305 L 6.317099094390869 6.219709396362305 L 4.465107917785645 0.2985095381736755 L 4.058968067169189 -1.000000476837158 L 5.419517993927002 -1.000000476837158 L 7.226017951965332 -1.000000476837158 L 7.780007839202881 -1.000000476837158 L 8.073807716369629 -0.53033047914505 L 12.29627704620361 6.219709396362305 L 16.71017837524414 6.219709396362305 C 17.98665809631348 6.219709396362305 19.0650577545166 7.297569751739502 19.0650577545166 8.573399543762207 C 19.0650577545166 9.849239349365234 17.98665809631348 10.92709922790527 16.71017837524414 10.92709922790527 L 12.29627704620361 10.92709922790527 L 8.073807716369629 17.6771297454834 L 7.780007839202881 18.14679908752441 Z" stroke="none"/>
        <path d="M 7.226017951965332 17.14679908752441 L 11.74228763580322 9.927099227905273 L 16.71017837524414 9.927099227905273 C 17.43277740478516 9.927099227905273 18.0650577545166 9.295369148254395 18.0650577545166 8.573399543762207 C 18.0650577545166 7.851429462432861 17.43277740478516 7.219709396362305 16.71017837524414 7.219709396362305 L 11.74228763580322 7.219709396362305 L 7.226017951965332 -4.562377853289945e-07 L 5.419517993927002 -4.562377853289945e-07 L 7.677648067474365 7.219709396362305 L 2.709757804870605 7.219709396362305 L 1.354877948760986 5.414779663085938 L -2.076415967167122e-06 5.414779663085938 L 0.9032479524612427 8.573399543762207 L -2.076415967167122e-06 11.73201942443848 L 1.354877948760986 11.73201942443848 L 2.709757804870605 9.927099227905273 L 7.677648067474365 9.927099227905273 L 5.419517993927002 17.14679908752441 L 7.226017951965332 17.14679908752441 M 7.226017951965332 19.14679908752441 L 5.419517993927002 19.14679908752441 L 3.510707855224609 16.54977035522461 L 4.956555843353271 11.92709922790527 L 3.709223508834839 11.92709922790527 L 2.954367876052856 12.93268966674805 L 1.354877948760986 13.73201942443848 L -2.076415967167122e-06 13.73201942443848 L -1.922922134399414 11.18212985992432 L -1.176920533180237 8.573399543762207 L -1.922922134399414 5.964669704437256 L -2.076415967167122e-06 3.414779424667358 L 1.354877948760986 3.414779424667358 L 2.954377889633179 4.214109420776367 L 3.709236860275269 5.219709396362305 L 4.956560134887695 5.219709396362305 L 3.510707855224609 0.5970195531845093 L 5.419517993927002 -2.000000476837158 L 7.226017951965332 -2.000000476837158 L 8.921597480773926 -1.060670495033264 L 12.8502721786499 5.219709396362305 L 16.71017837524414 5.219709396362305 C 18.52870750427246 5.219709396362305 20.0650577545166 6.755509376525879 20.0650577545166 8.573399543762207 C 20.0650577545166 10.39128971099854 18.52870750427246 11.92709922790527 16.71017837524414 11.92709922790527 L 12.8502721786499 11.92709922790527 L 8.921597480773926 18.20746994018555 L 7.226017951965332 19.14679908752441 Z" stroke="none" fill="#791fe1"/>
      </g>
    </g>
  </g>
</svg>
